<svg xmlns="http://www.w3.org/2000/svg" xmlns:xlink="http://www.w3.org/1999/xlink" width="200" zoomAndPan="magnify" viewBox="0 0 150 149.999998" height="200" preserveAspectRatio="xMidYMid meet" version="1.0"><path fill="#ffffff" d="M 90.625 149.449219 C 89.917969 149.449219 89.230469 149.210938 88.667969 148.761719 C 87.929688 148.167969 87.5 147.273438 87.5 146.324219 L 87.5 123.074219 C 87.5 117.457031 86.78125 113.46875 85.230469 110.542969 C 84.773438 109.6875 84.75 108.667969 85.148438 107.789062 C 85.550781 106.90625 86.34375 106.261719 87.289062 106.042969 C 105.8125 101.769531 118.75 88.210938 118.75 73.074219 C 118.75 65.574219 115.667969 58.417969 109.84375 52.375 C 108.945312 51.445312 108.710938 50.0625 109.257812 48.886719 C 111.582031 43.875 111.085938 37.050781 108.332031 32.957031 C 104.6875 34.382812 99.957031 37.363281 96.882812 41.011719 C 96.042969 42.019531 94.664062 42.386719 93.417969 41.929688 C 81.699219 37.632812 68.304688 37.632812 56.585938 41.929688 C 55.355469 42.382812 53.96875 42.019531 53.125 41.019531 C 50.050781 37.367188 45.320312 34.386719 41.667969 32.960938 C 38.914062 37.054688 38.417969 43.882812 40.742188 48.894531 C 41.289062 50.0625 41.054688 51.445312 40.15625 52.375 C 34.332031 58.417969 31.25 65.582031 31.25 73.074219 C 31.25 87.492188 42.894531 100.480469 60.226562 105.386719 C 61.574219 105.773438 62.5 107 62.5 108.398438 L 62.5 110.582031 C 62.5 114.492188 60.929688 116.699219 59.613281 117.867188 C 56.789062 120.351562 53.136719 119.976562 52.738281 119.929688 C 52.71875 119.929688 52.695312 119.929688 52.675781 119.929688 C 47.523438 119.929688 43.648438 117.0625 39.90625 114.289062 C 38.023438 112.894531 36.117188 111.476562 33.898438 110.300781 C 34.382812 110.949219 34.855469 111.617188 35.335938 112.289062 C 40.023438 118.804688 45.332031 126.199219 53.132812 126.199219 L 59.382812 126.199219 C 61.105469 126.199219 62.507812 127.601562 62.507812 129.324219 L 62.507812 146.324219 C 62.507812 147.273438 62.074219 148.167969 61.335938 148.761719 C 60.59375 149.351562 59.632812 149.570312 58.707031 149.375 C 24.6875 141.824219 0 111.054688 0 76.199219 C 0 34.84375 33.644531 1.199219 75 1.199219 C 116.355469 1.199219 150 34.84375 150 76.199219 C 150 111.050781 125.3125 141.824219 91.300781 149.375 C 91.074219 149.425781 90.851562 149.449219 90.625 149.449219 Z M 92.238281 111.195312 C 93.261719 114.425781 93.75 118.300781 93.75 123.074219 L 93.75 142.3125 C 122.945312 134.023438 143.75 106.832031 143.75 76.199219 C 143.75 38.292969 112.90625 7.449219 75 7.449219 C 37.09375 7.449219 6.25 38.292969 6.25 76.199219 C 6.25 106.832031 27.054688 134.023438 56.25 142.3125 L 56.25 132.449219 L 53.125 132.449219 C 42.125 132.449219 35.542969 123.292969 30.257812 115.929688 C 27.261719 111.761719 24.164062 107.449219 21.875 107.449219 C 20.148438 107.449219 18.75 106.050781 18.75 104.324219 C 18.75 102.601562 20.148438 101.199219 21.875 101.199219 C 32.75 101.199219 38.78125 105.667969 43.625 109.261719 C 46.976562 111.742188 49.613281 113.699219 53.125 113.699219 C 53.476562 113.71875 54.769531 113.8125 55.492188 113.164062 C 56.085938 112.625 56.238281 111.554688 56.25 110.710938 C 37.460938 104.542969 25 89.664062 25 73.082031 C 25 64.554688 28.199219 56.457031 34.273438 49.542969 C 31.59375 41.773438 33.25 32.289062 38.414062 27.117188 C 39.195312 26.332031 40.332031 26.011719 41.417969 26.304688 C 45.59375 27.414062 51.792969 30.65625 56.425781 35.375 C 68.332031 31.492188 81.648438 31.492188 93.554688 35.375 C 98.1875 30.65625 104.386719 27.414062 108.5625 26.304688 C 109.644531 26.011719 110.78125 26.324219 111.570312 27.117188 C 116.738281 32.289062 118.386719 41.773438 115.707031 49.539062 C 121.800781 56.457031 125 64.554688 125 73.074219 C 125 90.125 111.707031 105.386719 92.238281 111.195312 Z M 92.238281 111.195312 " fill-opacity="1" fill-rule="nonzero"/></svg>